<?xml version="1.0" encoding="UTF-8"?>
<svg class="css-1j8o68f" viewBox="0 0 356 200" xmlns="http://www.w3.org/2000/svg">
<g transform="matrix(1.1608 0 0 1.1608 -8.864 41.842)" fill="#306cda" featurekey="symbolFeature-0">
<path d="m72.5 59.6c0.8 1.7 1.6 3.4 2.3 5.2 1.5 3.5 2.7 7.1 3.3 10.9 0.4 2.3 0.5 4.6-0.2 6.9-0.7 2.4-2.5 3.7-5 3.7-2.3 0-4.3-0.8-6.3-1.8-1.7-0.9-3.4-2-5.1-3.1-0.7-0.5-1.3-0.6-2.2-0.3-2.7 1-5.7-1.7-5.3-4.5 0.2-1.2 0.1-1.4-1-2.2-0.1 0.2-0.3 0.4-0.4 0.6-2.4 3.5-5 6.9-8 9.9-1.9 1.8-3.9 3.6-6.3 4.7-1.2 0.5-2.4 0.9-3.7 0.8-2-0.1-3.3-1.3-4.1-2.9-0.9-1.7-1.2-3.6-1.4-5.5-0.4-5.3 0.4-10.4 1.6-15.5 0.1-0.4 0.2-0.8 0.3-1.3-0.2 0-0.4-0.1-0.6-0.1-4.7-0.2-9.4-0.8-14-2.1-2.1-0.6-4.1-1.4-5.9-2.7-0.5-0.4-1-0.8-1.4-1.2-1.7-1.9-1.9-4-0.7-6.2 1.1-1.9 2.7-3.3 4.5-4.5 1.7-1.1 3.5-2.1 5.3-3.1 0.4-0.2 0.5-0.4 0.6-0.9 0.1-1.7 0.9-2.9 2.5-3.6s3.1-0.5 4.4 0.6c0.5 0.4 0.9 0.5 1.5 0.3 0.3-0.2 0.7-0.3 1.1-0.3 0.4-0.1 0.5-0.3 0.3-0.7-1.6-3.2-3-6.5-4.1-10-0.9-2.8-1.6-5.7-1.7-8.7 0-1.3 0.1-2.6 0.5-3.8 0.8-2.7 3.1-4.1 6-3.7 3 0.4 5.6 1.8 8.2 3.3 3.7 2.3 6.9 5.1 10.1 8l0.6 0.6c0.9-1.2 1.7-2.4 2.6-3.6 2.3-3.1 4.8-6 7.7-8.5 1.7-1.4 3.4-2.7 5.5-3.4 0.9-0.3 1.8-0.5 2.7-0.4 2.6 0.1 3.9 1.9 4.7 4.1 0.7 2 0.9 4 0.9 6.1 0 1.6-0.1 3.2-0.2 4.7 0 0.2 0.2 0.5 0.4 0.6 1 0.6 1.6 1.5 1.9 2.6 0.6 2.2-0.8 4.5-3 5.1-0.5 0.1-0.8 0.3-0.8 0.8 0 0.2-0.1 0.4-0.2 0.6-0.2 0.6-0.1 0.6 0.5 0.6 4 0.2 7.9 0.6 11.8 1.5 2.7 0.6 5.3 1.5 7.7 3 1.3 0.8 2.4 1.8 3 3.2 0.6 1.5 0.5 2.9-0.3 4.3-1 1.8-2.4 3.2-4 4.4-3.2 2.4-6.8 4.1-10.6 5.5-2 0.6-4 1.3-6 2zm-47.9-39.3c0.1 1.7 0.4 3.3 0.9 4.9 1.4 5 3.6 9.7 6 14.4 0.2 0.4 0.5 0.4 0.9 0.3 2.8-0.7 5.7-1.3 8.5-2 0.3-0.1 0.6-0.3 0.7-0.6 1.5-2.7 3-5.4 4.6-8.1 0.2-0.4 0.2-0.6-0.1-0.9-2-1.9-3.9-3.8-5.9-5.6-2.4-2.1-4.8-4-7.7-5.5-1.4-0.7-2.7-1.3-4.3-1.4-1.5-0.1-2.6 0.6-3.1 1.9-0.3 0.9-0.4 1.7-0.5 2.6zm46.5 18.2h-1.2c-0.4 0-0.5 0.2-0.7 0.5-1 3-1.9 6-2.9 9-0.1 0.4-0.1 0.7 0.1 1.1 1.4 2.4 2.9 4.8 4.3 7.2 0.3 0.5 0.5 0.6 1 0.4 3-1 6-1.9 9-3s5.9-2.5 8.5-4.4c1-0.7 1.8-1.5 2.5-2.5 0.8-1.4 0.7-2.7-0.4-3.8-0.2-0.2-0.5-0.4-0.7-0.6-1.3-0.9-2.8-1.5-4.3-1.9-5.1-1.5-10.1-1.8-15.2-2zm-39.8 43.2c0 0.6 0.1 1.6 0.2 2.7 0.2 1.1 0.5 2.2 1.2 3.1s1.6 1.2 2.6 1.1c1.3-0.1 2.4-0.8 3.4-1.5 2.1-1.5 3.9-3.5 5.5-5.4 2.4-2.9 4.5-6 6.6-9.2 0.2-0.3 0.2-0.5 0-0.7-2-2.3-4.1-4.6-6.1-6.8-0.2-0.2-0.5-0.3-0.7-0.3-3.1 0.1-6.1 0.2-9.2 0.3-0.5 0-0.8 0.1-0.9 0.6l-1.2 4.8c-0.8 3.6-1.3 7.2-1.4 11.3zm45.3-1.3c-0.1-2-0.4-3.7-0.9-5.4-1.4-5-3.6-9.7-6-14.2-0.2-0.3-0.4-0.3-0.7-0.3-2.9 0.7-5.8 1.3-8.7 2-0.2 0.1-0.5 0.2-0.6 0.4-1.6 2.8-3.1 5.6-4.7 8.3-0.2 0.3-0.1 0.5 0.1 0.7l0.9 0.9c0.2 0.3 0.5 0.3 0.8 0.2 0.5-0.2 1-0.3 1.5-0.4 2.2-0.2 5 2.2 4.1 5.2-0.2 0.6 0 1 0.4 1.3 1.3 0.9 2.5 1.8 3.7 2.7 1.7 1.2 3.6 2.1 5.6 2.6 2.2 0.5 3.8-0.5 4.2-2.7 0.3-0.5 0.3-1 0.3-1.3zm-46.7-18.5h1.6c0.3 0 0.5-0.1 0.5-0.4l3-9.3c0.1-0.2 0-0.5-0.1-0.7-1.5-2.6-3-5.1-4.5-7.7-0.2-0.3-0.3-0.3-0.6-0.3-0.6 0.2-1.2 0.3-1.8 0.5-0.5 0.1-0.9 0.4-0.9 1-0.1 1-0.6 1.8-1.3 2.4-1.7 1.4-3.9 1.4-5.6-0.1-0.2-0.2-0.4-0.4-0.8-0.2-2.5 1.1-4.9 2.2-7.1 3.8-1.1 0.8-2 1.6-2.7 2.8-0.8 1.4-0.6 2.7 0.5 3.8 0.5 0.5 1.1 0.9 1.6 1.2 1.6 0.9 3.4 1.4 5.3 1.8 4.3 1 8.6 1.2 12.9 1.4zm34.2-26.5v0c0.9 0.1 1.7 0 2.5 0.1 0.3 0 0.5-0.1 0.5-0.4 0.1-0.6 0.3-1.1 0.5-1.7 0.1-0.4 0-0.6-0.3-0.9-2.5-2-1.7-6.2 1.5-7.1 0.4-0.1 0.5-0.3 0.6-0.7 0.3-2.7 0.6-5.4 0.3-8.1-0.1-1.3-0.4-2.5-1.1-3.6-0.7-1-1.7-1.5-2.9-1.3-1 0.2-1.9 0.6-2.7 1.2-1.7 1.1-3.1 2.5-4.4 3.9-3.2 3.4-5.8 7.2-8.3 11.1-0.2 0.3-0.1 0.5 0.1 0.8 1.9 2.1 3.7 4.1 5.5 6.2 0.5 0.6 1 0.9 1.8 0.8 2.2-0.1 4.3-0.2 6.4-0.3zm-18 25.9c1.3-0.2 2.6-0.3 3.8-0.4 2.5-0.3 5-0.7 7.5-1 0.4 0 0.6-0.2 0.7-0.5 1.5-3.3 2.9-6.6 4.4-10 0.1-0.2 0-0.6-0.1-0.8-0.5-0.8-1-1.6-1.6-2.3-1.5-2-3-4.1-4.4-6.1-0.5-0.8-1.2-1.1-2.2-1-1.7 0.2-3.5 0.4-5.2 0.6-1.6 0.2-3.1 0.5-4.7 0.7-0.4 0.1-0.7 0.1-0.9 0.5-1.5 3.3-3 6.7-4.4 10-0.1 0.2-0.1 0.6 0.1 0.7 2.2 3.1 4.5 6.1 6.7 9.2-0.1 0.3 0.2 0.4 0.3 0.4zm-8.8-6.2c-0.8 2.3-1.5 4.5-2.3 6.9 2.4-0.1 4.7-0.2 7.1-0.3-1.7-2.3-3.2-4.4-4.8-6.6zm26.7-9.8c0.8-2.3 1.5-4.5 2.3-6.8-2.4 0.1-4.7 0.2-7.1 0.3 1.6 2.2 3.2 4.3 4.8 6.5zm-11.3 24.1c1.1-2.1 2.2-4.1 3.4-6.1-2.7 0.4-5.2 0.7-7.8 1 1.4 1.7 2.9 3.4 4.4 5.1zm-4.2-38.4c-1.1 2.1-2.2 4.1-3.4 6.1 2.7-0.3 5.2-0.7 7.8-1-1.4-1.7-2.8-3.4-4.4-5.1zm-9 10.4h-0.3c-1.8 0.4-3.6 0.8-5.4 1.2-0.4 0.1-0.5 0.2-0.3 0.6 0.9 1.5 1.9 3.1 2.8 4.6l0.3 0.3c1-2.2 1.9-4.4 2.9-6.7zm25.2 10.8-3 6.9c2.1-0.5 4.2-0.9 6.3-1.4-1.1-1.9-2.2-3.7-3.3-5.5z" xmlns="http://www.w3.org/2000/svg"/>
<path d="m43.7 50.2c0-3.8 3.1-6.9 6.9-6.9 3.9 0 7 3.1 7 7s-3 6.9-6.9 6.9c-4.3 0-7-3.3-7-7z" xmlns="http://www.w3.org/2000/svg"/>
</g>
<g transform="translate(355)" fill="#306cda" featurekey="textGroupContainer">
<rect width="1" height="1" opacity="0" xmlns="http://www.w3.org/2000/svg"/>
<rect x="-235" width="3" height="200" xmlns="http://www.w3.org/2000/svg"/>
</g>
<g transform="matrix(7.1994 0 0 7.1994 127.06 5.3636)" fill="#306cda" featurekey="vMvB0T-0">
<path d="m9.02 11.64-0.02-1.48v-3.82q0.62-0.12 1.61-0.12t1.59 0.12v13.66q-0.64 0.12-1.6 0.12t-1.6-0.12v-4.24l0.02-1.48-1 0.02h-2.32l-1-0.02 0.02 1.48v4.24q-0.62 0.12-1.6 0.12t-1.6-0.12v-13.66q0.62-0.12 1.6-0.12t1.6 0.12v3.82l-0.02 1.48 1-0.02h2.32zm5.8 8.32 1.06-13.6q0.88-0.16 2.08-0.16t2.1 0.16l1.18 4.9q0.7 3.32 0.74 3.62h0.14q0.08-0.5 0.74-3.62l1.2-4.9q0.88-0.16 2.08-0.16t2.1 0.16l1.06 13.6q-0.62 0.16-1.53 0.16t-1.49-0.1l-0.32-5.56q-0.14-3.32-0.16-4.62h-0.12l-1.98 8.14q-0.72 0.12-1.65 0.12t-1.65-0.12l-1.96-8.14h-0.14q0 1.78-0.16 4.62l-0.3 5.56q-0.58 0.1-1.49 0.1t-1.53-0.16z"/>
</g>
</svg>
